<?xml version="1.0" standalone="no"?><!DOCTYPE svg PUBLIC "-//W3C//DTD SVG 1.1//EN" "http://www.w3.org/Graphics/SVG/1.1/DTD/svg11.dtd"><svg t="1640534407785" class="icon" viewBox="0 0 1024 1024" version="1.1" xmlns="http://www.w3.org/2000/svg" p-id="13460" xmlns:xlink="http://www.w3.org/1999/xlink" width="200" height="200"><defs><style type="text/css"></style></defs><path d="M164.875997 164.875997h694.249986v694.249986H164.875997z m0 0" fill="#ECECEE" p-id="13461"></path><path d="M204.795996 204.795996h61.813999v614.407988h-61.813999z m0 0" fill="#DADADC" p-id="13462"></path><path d="M102.399998 307.203994L0 409.599992v204.795996l102.399998 102.399998 102.395998-102.399998V409.601992z m0 0" fill="#FFB258" p-id="13463"></path><path d="M614.399988 819.203984H409.599992L307.205994 921.599982 409.599992 1023.99998h204.795996l102.399998-102.399998z m0 0" fill="#FFE675" p-id="13464"></path><path d="M921.599982 307.203994L819.205984 409.599992v204.795996l102.397998 102.399998 102.397998-102.399998V409.601992z m0 0" fill="#FF9EC0" p-id="13465"></path><path d="M614.399988 0H409.599992l-102.395998 102.399998 102.397998 102.395998h204.795996L716.799986 102.399998z m0 0" fill="#FF6881" p-id="13466"></path><path d="M204.795996 0H65.585999C29.365999 0 0 29.367999 0 65.585999v139.209997l102.399998 102.407998 102.395998-102.407998L307.203994 102.399998z m0 0M204.795996 819.203984L102.399998 716.795986 0 819.203984v139.209997C0 994.633981 29.367999 1023.99998 65.585999 1023.99998h139.209997l102.407998-102.399998z m0 0M921.599982 716.795986l-102.395998 102.407998-102.407998 102.397998L819.203984 1023.99998h139.209997c36.219999 0 65.585999-29.367999 65.585999-65.585999v-139.209997z m0 0M958.413981 0h-139.209997l-102.407998 102.399998 102.407998 102.395998 102.397998 102.407998L1023.99998 204.795996V65.585999C1023.99998 29.365999 994.631981 0 958.413981 0z m0 0" fill="#485B73" p-id="13467"></path><path d="M204.795996 0h204.805996v204.795996H204.795996z m0 0" fill="#91DAFF" p-id="13468"></path><path d="M614.399988 0h204.803996v204.795996H614.397988z m0 0" fill="#FFB258" p-id="13469"></path><path d="M204.795996 819.203984h204.805996V1023.99998H204.795996z m0 0" fill="#FF9EC0" p-id="13470"></path><path d="M614.399988 819.203984h204.803996V1023.99998H614.397988z m0 0" fill="#91DAFF" p-id="13471"></path><path d="M819.203984 614.399988H1023.99998v204.803996H819.203984z m0 0" fill="#4CB4A4" p-id="13472"></path><path d="M819.203984 204.795996H1023.99998v204.805996H819.203984z m0 0" fill="#6DD1E0" p-id="13473"></path><path d="M0 614.399988h204.795996v204.803996H0z m0 0" fill="#FF6881" p-id="13474"></path><path d="M0 204.795996h204.795996v204.805996H0z m0 0" fill="#4CB4A4" p-id="13475"></path><path d="M334.719993 534.92999a15.446 15.446 0 0 1-15.445999-15.454V487.39999a15.446 15.446 0 0 1 15.443999-15.451999 15.448 15.448 0 0 1 15.454 15.451999v32.08a15.448 15.448 0 0 1-15.454 15.452z m0 0M689.279987 534.92999a15.448 15.448 0 0 1-15.452-15.454V487.39999a15.448 15.448 0 0 1 15.454-15.451999 15.446 15.446 0 0 1 15.443999 15.451999v32.08a15.446 15.446 0 0 1-15.443999 15.452z m0 0M511.99999 552.053989c-21.508 0-41.703999-8.976-55.389999-24.639999-5.618-6.42-4.96-16.18 1.46-21.804a15.46 15.46 0 0 1 21.812 1.468c7.814 8.946 19.524 14.07 32.117999 14.07s24.296-5.124 32.117999-14.07a15.45 15.45 0 0 1 21.804-1.468 15.45 15.45 0 0 1 1.468 21.804c-13.686 15.664-33.873999 24.64-55.389999 24.639999z m0 0" fill="#3A3C4C" p-id="13476"></path></svg>