<?xml version="1.0" standalone="no"?><!DOCTYPE svg PUBLIC "-//W3C//DTD SVG 1.1//EN" "http://www.w3.org/Graphics/SVG/1.1/DTD/svg11.dtd"><svg t="1650885381235" class="icon" viewBox="0 0 1024 1024" version="1.1" xmlns="http://www.w3.org/2000/svg" p-id="3258" xmlns:xlink="http://www.w3.org/1999/xlink" width="200" height="200"><defs><style type="text/css"></style></defs><path d="M511.993 414.259c-53.845 0-97.741 43.842-97.741 97.741s43.896 97.752 97.741 97.752c53.932 0 97.741-43.853 97.741-97.752 0.001-53.898-43.809-97.741-97.741-97.741z m0 167.56c-38.499 0-69.831-31.342-69.831-69.819 0-38.5 31.332-69.82 69.831-69.82 38.521 0 69.831 31.32 69.831 69.82 0 38.478-31.31 69.819-69.831 69.819zM155.772 457.244c23.067 0 41.888-18.821 41.888-41.91 0-23.066-18.821-41.887-41.888-41.887-23.143 0-41.909 18.821-41.909 41.887 0 23.089 18.766 41.91 41.909 41.91z m0-55.854c7.667 0 13.944 6.277 13.944 13.944 0 7.689-6.277 13.966-13.944 13.966-7.689 0-13.966-6.276-13.966-13.966 0-7.667 6.277-13.944 13.966-13.944zM651.621 710.967c-23.066 0-41.887 18.81-41.887 41.898 0 23.066 18.82 41.897 41.887 41.897 23.143 0 41.888-18.831 41.888-41.897 0-23.089-18.745-41.898-41.888-41.898z m0 55.844c-7.668 0-13.944-6.277-13.944-13.945 0-7.689 6.276-13.966 13.944-13.966 7.744 0 13.967 6.276 13.967 13.966 0 7.667-6.223 13.945-13.967 13.945zM775.035 293.299c23.067 0 41.887-18.821 41.887-41.886 0-23.122-18.819-41.888-41.887-41.888-23.143 0-41.888 18.766-41.888 41.888 0.001 23.066 18.746 41.886 41.888 41.886z m0-55.852c7.657 0 13.944 6.222 13.944 13.966 0 7.667-6.287 13.965-13.944 13.965-7.743 0-13.978-6.299-13.978-13.965a13.938 13.938 0 0 1 13.978-13.966z" fill="#fd8345" p-id="3259"></path><path d="M809.799 512c13.478-13.891 26.227-27.814 37.401-41.67 58.862-73.088 77.237-137.619 51.737-181.754-10.893-18.897-29.79-32.157-54.44-40.606 0.054 1.119 0.336 2.27 0.336 3.444 0 8.47-1.749 16.496-4.54 24.032 14.499 5.626 27.01 14.097 34.514 27.107 19.005 32.896 1.021 87.706-49.338 150.228-10.664 13.162-22.707 26.411-35.522 39.574-29.769-28.236-63.782-55.939-101.13-82.342-4.203-46.079-11.262-89.063-20.698-128.181 13.705-3.464 27.649-7.297 40.584-9.621-2.085-6.614-3.498-13.522-3.498-20.797 0-2.4 0.446-4.67 0.707-6.983-14.313 2.476-29.583 6.613-44.679 10.425-32.526-115.335-86.663-189.672-149.24-189.672-62.402 0-116.432 74.001-148.957 188.89-42.17-10.741-81.603-16.626-115.985-16.626-60.523 0-102.671 17.669-122.002 51.129-11.186 19.417-13.196 42.8-7.82 68.603 7.732-5.104 16.551-8.656 25.956-10.393-2.737-17.311-0.857-32.319 6.017-44.233 17.778-30.734 63.032-37.174 97.85-37.174 32.189 0 69.276 5.582 109.002 15.693-9.438 39.281-16.584 82.526-20.83 128.865-38 26.814-71.861 54.572-101.183 82.46-9.719-10.034-18.972-20.037-27.236-29.788-6.3 6.831-13.912 12.435-22.513 16.322 9.123 10.892 19.287 21.84 29.996 32.884-83.297 85.62-120.439 169.482-89.237 223.588 19.332 33.47 61.533 51.151 122.002 51.151 34.382 0 73.815-5.888 115.985-16.639 32.525 114.899 86.555 188.9 148.957 188.9 52.442 0 98.893-52.26 131.7-136.925-9.514-1.086-18.343-4.061-26.324-8.601-29.191 74.673-67.92 117.592-105.376 117.592-45.2 0-92.322-62.858-122.263-168.548 39.53-11.707 80.82-27.194 122.784-46.524 23.565 10.729 47.101 20.874 70.091 29.322 1.087-9.534 4.007-18.483 8.547-26.477-14.802-5.494-30.104-12.511-45.2-19.027 18.974-9.535 37.957-19.547 56.799-30.45 19.026-10.991 37.348-22.524 55.256-34.253-1.879 16.225-3.421 33.035-5.94 48.174 9.644 0.021 18.842 2.087 27.183 5.648 4.063-23.675 6.93-48.892 9.308-74.588 37.478-26.478 71.59-54.234 101.39-82.58 12.815 13.207 24.858 26.413 35.522 39.597 50.358 62.619 68.343 117.376 49.315 150.259-17.724 30.734-63.03 37.208-97.794 37.208-17.202 0-36.045-2.021-55.626-4.953-0.098 9.688-2.183 18.896-5.939 27.28 21.688 3.367 42.538 5.584 61.565 5.584 60.437 0 102.66-17.682 121.947-51.151 25.5-44.093 7.07-108.603-51.737-181.733-11.177-13.88-23.926-27.802-37.404-41.67zM658.736 389.552c-18.115-11.913-36.696-23.61-55.984-34.741-18.929-10.947-38.054-21.015-57.156-30.625 32.678-14.053 64.921-26.488 95.655-35.61 7.319 30.755 13.335 64.465 17.485 100.976zM511.993 93.094c45.298 0 92.344 62.902 122.263 168.56-39.096 11.522-80.114 27.443-121.741 46.524-41.964-19.341-83.254-34.817-122.784-46.524 29.94-105.658 77.063-168.56 122.262-168.56zM382.791 288.63c31.125 9.252 63.5 21.111 96.6 35.425-19.417 9.741-38.835 19.602-58.156 30.723-19.472 11.263-37.977 22.915-55.929 34.72 4.171-36.511 10.11-70.167 17.485-100.868z m-50.227 157.503c-1.217 21.536-2.086 43.375-2.086 65.867 0 22.49 0.869 44.429 2.139 65.932-29.637-21.938-55.907-44.114-78.844-65.985 22.937-21.808 49.207-43.887 78.791-65.814z m-85.512 312.511c-34.818 0-80.072-6.474-97.85-37.208-22.589-39.118 8.319-111.293 84.763-190.018 29.225 27.878 63.26 55.68 101.259 82.569 4.246 46.328 11.393 89.617 20.83 128.93-39.726 10.122-76.759 15.727-109.002 15.727z m135.739-23.285c-7.375-30.713-13.314-64.401-17.484-100.868 17.952 11.838 36.457 23.457 55.929 34.688 19.472 11.273 39.021 20.85 58.569 30.581-33.211 14.401-65.737 26.324-97.014 35.599z m206.016-90.356c-25.575 14.747-51.293 27.953-76.89 40.14a1080.826 1080.826 0 0 1-76.705-40.097c-26.15-15.095-50.596-30.603-73.403-46.286a1100.922 1100.922 0 0 1-3.41-86.76c0-30.202 1.228-59.134 3.41-86.762a1119.162 1119.162 0 0 1 73.403-46.296c25.565-14.749 51.216-27.965 76.781-40.084 25.565 12.174 51.271 25.336 76.813 40.084 25.563 14.759 50.064 30.343 73.468 46.394 2.141 27.628 3.313 56.505 3.313 86.664 0 30.202-1.228 59.046-3.41 86.652a1097.759 1097.759 0 0 1-73.37 46.351z m102.617-198.87c28.801 21.352 55.071 43.484 78.626 65.867-23.739 22.49-50.174 44.731-79.147 66.191 1.27-21.742 2.606-43.439 2.606-66.191 0-22.491-0.813-44.331-2.085-65.867z" fill="#9a9cfc" p-id="3260"></path></svg>