<?xml version="1.0" standalone="no"?><!DOCTYPE svg PUBLIC "-//W3C//DTD SVG 1.1//EN" "http://www.w3.org/Graphics/SVG/1.1/DTD/svg11.dtd"><svg t="1640503422663" class="icon" viewBox="0 0 1024 1024" version="1.1" xmlns="http://www.w3.org/2000/svg" p-id="1899" xmlns:xlink="http://www.w3.org/1999/xlink" width="200" height="200"><defs><style type="text/css"></style></defs><path d="M383.844 1020a30.012 30.012 0 0 1-29.996-30.016l0.176-483.556H107.048a30 30 0 0 1-23.012-49.244L435.54 36.992a29.992 29.992 0 0 1 53.004 19.248v250.128h339.764a30 30 0 0 1 24.808 46.868L408.66 1006.868A29.996 29.996 0 0 1 383.844 1020zM171.256 446.432h212.776a30.008 30.008 0 0 1 30 30.012l-0.152 416.032 357.752-526.112h-313.084a30 30 0 0 1-30-30V138.856l-257.292 307.576z" fill="#FF9BB1" opacity=".2" p-id="1900"></path><path d="M512.796 1008.824a30.008 30.008 0 0 1-29.996-30.016l0.176-483.552H236a30.004 30.004 0 0 1-23.012-49.248L564.492 25.816a29.992 29.992 0 0 1 53 19.248v250.128h339.76a30 30 0 0 1 24.812 46.868L537.608 995.692a29.992 29.992 0 0 1-24.812 13.132zM300.208 435.256h212.776a30.008 30.008 0 0 1 30 30.012l-0.152 416.032 357.752-526.112h-313.084a30 30 0 0 1-30-30V127.68l-257.292 307.576z" fill="#54FFDB" opacity=".3" p-id="1901"></path><path d="M459.668 433.3l-0.136 381.74 330.372-485.852h-274.848" fill="#F0D800" p-id="1902"></path><path d="M523.5 49.064L172 469.256h276.988l-0.188 513.564L893.264 329.188h-369.764z" fill="#FFFF00" p-id="1903"></path><path d="M448.988 469.256l-0.188 513.564L893.264 329.188h-369.764" fill="#F0D800" p-id="1904"></path><path d="M529.576 457.268l-0.068 192.092 166.244-244.484h-138.304" fill="#FFFF00" p-id="1905"></path><path d="M448.796 1012.824a30.008 30.008 0 0 1-29.996-30.016l0.176-483.552H172a30.004 30.004 0 0 1-23.012-49.248L500.492 29.816a29.996 29.996 0 0 1 53 19.248v250.128h339.76a30 30 0 0 1 24.812 46.868L473.608 999.692a30 30 0 0 1-24.812 13.132zM236.208 439.256h212.776a30 30 0 0 1 30 30.012l-0.152 416.032 357.752-526.112h-313.084a30 30 0 0 1-30-30V131.68l-257.292 307.576z" fill="#6E6E96" p-id="1906"></path></svg>